<?xml version="1.0" standalone="no"?>
<!DOCTYPE svg PUBLIC "-//W3C//DTD SVG 20010904//EN"
 "http://www.w3.org/TR/2001/REC-SVG-20010904/DTD/svg10.dtd">
<svg version="1.0" xmlns="http://www.w3.org/2000/svg"
 width="260.000000pt" height="260.000000pt" viewBox="0 0 260.000000 260.000000"
 preserveAspectRatio="xMidYMid meet">
<metadata>
Created by potrace 1.14, written by Peter Selinger 2001-2017
</metadata>
<g transform="translate(0.000000,260.000000) scale(0.100000,-0.100000)"
fill="#000000" stroke="none">
<path d="M487 2593 c-7 -13 -18 -65 -23 -108 -3 -22 -7 -48 -10 -58 -3 -10 -7
-30 -9 -45 -2 -15 -15 -92 -29 -172 -14 -80 -28 -163 -31 -185 -4 -22 -8 -47
-10 -55 -2 -8 -7 -37 -11 -65 -3 -27 -8 -53 -10 -56 -1 -3 -10 -50 -19 -105
-9 -54 -18 -110 -20 -124 -20 -107 -67 -409 -81 -515 -3 -27 -8 -54 -11 -58
-14 -23 -12 -225 3 -281 63 -241 285 -388 563 -374 113 6 191 30 292 91 l71
42 -59 12 c-168 35 -202 49 -266 111 -83 80 -114 207 -84 347 8 39 45 150 81
248 97 261 113 325 123 500 11 208 -45 394 -176 577 -72 101 -272 293 -284
273z"/>
<path d="M1970 2347 c-25 -39 -83 -110 -130 -157 -156 -158 -359 -253 -616
-289 -137 -19 -185 -33 -201 -57 -27 -42 2 -136 54 -171 43 -29 159 -76 278
-114 106 -33 165 -62 238 -118 174 -131 296 -311 348 -511 6 -25 14 -54 16
-65 3 -11 7 -87 8 -170 3 -167 -13 -270 -63 -414 -34 -94 -32 -94 76 -4 159
133 254 265 311 430 101 298 115 696 34 1023 -38 156 -115 347 -207 515 -27
50 -59 109 -70 133 -11 23 -22 42 -25 41 -3 0 -26 -32 -51 -72z"/>
<path d="M1566 2323 c-8 -27 -30 -92 -49 -145 -23 -67 -30 -98 -22 -98 7 0 49
18 93 40 117 59 125 96 44 202 -20 26 -40 48 -44 48 -4 0 -14 -21 -22 -47z"/>
<path d="M1682 1077 c-15 -116 -43 -210 -93 -310 -45 -92 -82 -142 -157 -215
-71 -68 -121 -103 -224 -152 -144 -70 -230 -90 -403 -95 -124 -4 -240 13 -348
50 -27 9 -51 14 -53 12 -8 -7 127 -125 203 -178 196 -136 385 -190 638 -185
252 6 383 59 491 201 97 127 152 390 123 580 -21 133 -81 286 -137 352 l-28
32 -12 -92z"/>
</g>
</svg>
